<svg width="151" height="151" viewBox="0 0 151 151" fill="none" xmlns="http://www.w3.org/2000/svg">
<circle cx="75.7295" cy="75.0443" r="75" fill="#FEF7D1"/>
<mask id="mask0_200_4363" style="mask-type:alpha" maskUnits="userSpaceOnUse" x="0" y="0" width="151" height="151">
<circle cx="75.7295" cy="75.0443" r="75" fill="#FEF7D1"/>
</mask>
<g mask="url(#mask0_200_4363)">
<path d="M1.01021 157.366C23.2152 160.616 36.0917 176.99 27.8703 191.104C10.2207 221.419 -42.4651 233.636 -42.4651 233.636C-45.9496 233.518 -48.2182 238.356 -54.534 230.985C-61.7844 222.535 -57.4287 208.757 -57.4287 208.757C-51.2944 201.315 -30.5141 185.195 -21.9661 177.725L-30.5776 184.95C-33.3544 182.181 -39.1439 179.25 -39.28 172.569C-39.3889 167.469 -37.3743 160.48 -34.7882 155.469C-26.9025 140.176 -17.2656 132.279 -10.5687 128.993L-8.78103 128.14L-35.5322 130.201C-29.5432 124.455 -27.9098 118.9 -29.9334 111.394C-32.6738 101.21 -35.6865 101.828 -48.3453 103.543L-40.5685 102.617L37.5527 98.306C37.5527 98.306 37.5799 117.421 73.0788 122.168C83.6232 123.575 103.95 114.898 103.95 114.898L162.443 132.57C160.891 134.149 158.224 136.373 156.79 143.071C155.411 149.497 155.701 156.668 156.427 158.801C143.496 154.072 136.046 152.138 128.714 149.261C115.238 143.97 102.507 143.144 93.7593 146.929C85.792 150.378 76.8265 159.345 71.5089 164.01C56.2822 177.38 56.7086 177.407 43.6688 190.368C43.6688 190.368 22.6344 221.283 11.6272 234.489C-7.13857 253.704 -17.0024 262.118 -17.0024 262.118C-18.6993 257.761 -25.8318 241.605 -34.7065 229.361" fill="url(#paint0_linear_200_4363)"/>
<path d="M77.2707 125.028C103.872 125.028 125.437 103.458 125.437 76.8498C125.437 50.242 103.872 28.6721 77.2707 28.6721C50.669 28.6721 29.104 50.242 29.104 76.8498C29.104 103.458 50.669 125.028 77.2707 125.028Z" fill="#A7B5FD"/>
<path d="M69.4125 127.633C69.4125 127.633 64.8935 143.444 55.4108 155.216C49.3582 162.731 41.3546 169.838 35.6831 173.541" stroke="white" stroke-width="1.04835" stroke-miterlimit="10"/>
<path d="M52.4526 98.5695C36.6269 80.5347 36.6995 54.0133 51.527 36.1055C49.4127 37.4397 47.371 38.9555 45.4382 40.6528C25.4383 58.2066 23.46 88.649 41.0008 108.644C58.5506 128.649 88.986 130.628 108.977 113.083C110.937 111.358 112.725 109.507 114.34 107.555C94.6484 119.999 68.2965 116.632 52.4526 98.5695Z" fill="#4D96FF"/>
<path d="M-32.2929 186.357C-36.576 181.918 -41.9117 172.189 -41.1314 163.784C-39.8337 149.951 -28.1732 136.981 -9.60701 128.367L-35.8228 130.827L-29.5706 123.775L12.3167 120.026C6.23683 122.686 -1.45824 126.743 -10.5054 133.468C-22.4382 142.345 -28.1278 147.927 -29.7339 157.721C-31.1858 166.525 -27.3111 176.654 -22.2567 177.979L-32.2838 186.357H-32.2929Z" fill="#4D96FF"/>
<path d="M92.9243 147.31C96.1729 145.241 100.828 142.336 105.347 139.613C107.071 138.579 111.191 138.288 113.124 138.833C130.901 143.888 140.356 145.54 155.937 149.534C155.737 152.629 155.937 155.651 156.436 158.801C143.913 154.245 124.539 146.92 105.039 145.25C100.51 144.859 95.5105 146.448 92.9243 147.301V147.31Z" fill="#4D96FF"/>
<path d="M88.9228 114.698C107.115 114.698 121.863 99.9471 121.863 81.7507C121.863 63.5543 107.115 48.8032 88.9228 48.8032C70.7306 48.8032 55.9829 63.5543 55.9829 81.7507C55.9829 99.9471 70.7306 114.698 88.9228 114.698Z" fill="url(#paint1_linear_200_4363)"/>
<path d="M65.4019 68.4178C61.0825 68.3724 54.7123 68.3996 47.8067 66.6116C39.9211 64.5694 35.5019 61.919 32.1807 58.6334C32.8612 55.0845 34.0046 53.006 36.6725 49.9563C39.2224 53.0423 47.0172 56.3007 51.872 57.6168C57.7613 59.2143 63.832 59.3867 67.9336 59.2052C66.9627 62.745 66.3819 64.878 65.411 68.4087L65.4019 68.4178Z" fill="#999999"/>
<path d="M60.3109 82.6862C57.6249 84.4289 54.3763 85.0007 51.3182 83.9751C45.6286 82.0599 42.7702 75.3252 44.9208 68.9263C47.0714 62.5274 53.4326 58.8969 59.1131 60.812C62.5886 61.9829 65.0114 64.9599 65.8735 68.5542" fill="url(#paint2_linear_200_4363)"/>
<path d="M128.586 77.784L125.456 91.0719C124.403 95.5466 120.202 97.0442 115.683 96.9807C112.724 96.9444 109.521 96.073 107.706 94.8477C106.236 93.8584 104.43 92.4515 103.641 90.2913C102.044 85.8983 102.688 81.9773 100.057 81.3964C97.2979 80.8427 128.686 77.2757 128.586 77.784Z" fill="#333333"/>
<path d="M119.186 73.2918C121.073 73.9362 123.069 71.2133 124.267 73.6276C125.465 76.0419 125.937 76.1872 125.837 76.6682L122.843 89.4025C121.835 93.6956 117.643 95.0843 113.124 94.9845C110.166 94.9209 112.879 81.5877 111.046 80.3714C109.567 79.3821 104.812 79.2822 104.14 77.9752C102.598 74.98 99.9752 80.4259 97.3346 79.845C94.576 79.2822 92.752 84.1926 89.7847 86.4708C88.4417 87.5055 85.184 88.994 82.9245 89.4751C80.0116 90.1014 75.7104 91.1815 71.3638 90.1104C63.9863 88.2861 57.1987 83.6208 58.5236 77.4397L61.3457 64.5421C61.7994 63.2169 62.1805 57.5714 66.5816 55.3386C70.3474 53.015 76.2004 54.0316 79.567 54.558C90.2747 58.2703 106.128 68.5811 119.186 73.2918Z" fill="#333333"/>
<path d="M105.52 62.8722C112.271 65.1867 120.048 67.8461 125.719 69.7794C127.589 70.4238 129.44 72.1847 130.628 74.5809C131.817 76.977 131.236 79.5911 131.137 80.0721L127.262 92.9607C126.255 97.2357 121.246 98.2341 118.469 98.3067C115.52 98.2431 112.335 97.3809 110.52 96.1919C109.05 95.2298 107.108 93.0877 106.445 91.8079C104.921 88.8581 105.429 83.8479 102.806 83.2761C100.066 82.7224 98.2421 87.6056 95.2838 89.8837C93.9499 90.9185 90.7013 92.3979 88.4599 92.888C85.5561 93.5143 80.8102 93.3237 76.4908 92.2527C69.1587 90.4465 62.5526 86.589 63.8775 80.4261L67.8157 62.1189C67.9882 61.4382 69.6851 57.3628 73.5235 55.7109C77.362 54.059 80.2023 54.3222 83.6596 55.3842C92.2167 58.3159 101.972 61.6469 109.004 64.0522L105.529 62.8632L105.52 62.8722Z" fill="#999999"/>
<path d="M107.897 67.9189L124.049 73.038C124.467 73.1832 126.363 73.9003 127.525 76.0332C128.65 78.1208 128.287 80.1267 128.196 80.5533L124.576 92.0078C124.222 92.8428 123.323 93.9864 122.334 94.5038C121.672 94.8759 120.61 95.248 118.441 95.0574C112.044 94.6581 110.492 90.3558 110.247 89.9474C109.367 88.477 110.12 86.0355 108.423 83.5576C107.997 82.9313 106.445 80.6622 103.496 79.9996C100.538 79.328 98.0785 80.6622 97.3254 81.0706C94.3127 82.7044 93.5504 85.6996 92.1984 86.5619C91.6993 86.8796 86.9897 89.9202 80.2202 88.7856C75.4652 87.9869 72.1985 86.1262 70.5288 84.3563C69.6123 83.3851 69.2312 82.178 69.4852 81.0253L72.879 65.3866C73.0242 64.8057 73.8046 62.119 77.0805 60.7213C80.2747 59.3598 83.5142 60.2311 84.1857 60.4308C91.6539 62.7998 101.717 65.9856 107.897 67.9461V67.9189Z" fill="#4D4D4D"/>
<mask id="mask1_200_4363" style="mask-type:luminance" maskUnits="userSpaceOnUse" x="69" y="59" width="60" height="37">
<path d="M107.897 67.9189L124.049 73.038C124.467 73.1832 126.363 73.9003 127.525 76.0332C128.65 78.1208 128.287 80.1267 128.196 80.5533L124.576 92.0078C124.222 92.8428 123.323 93.9864 122.334 94.5038C121.672 94.8759 120.61 95.248 118.441 95.0574C112.044 94.6581 110.492 90.3558 110.247 89.9474C109.367 88.477 110.12 86.0355 108.423 83.5576C107.997 82.9313 106.445 80.6622 103.496 79.9996C100.538 79.328 98.0785 80.6622 97.3254 81.0706C94.3127 82.7044 93.5504 85.6996 92.1984 86.5619C91.6993 86.8796 86.9897 89.9202 80.2202 88.7856C75.4652 87.9869 72.1985 86.1262 70.5288 84.3563C69.6123 83.3851 69.2312 82.178 69.4852 81.0253L72.879 65.3866C73.0242 64.8057 73.8046 62.119 77.0805 60.7213C80.2747 59.3598 83.5142 60.2311 84.1857 60.4308C91.6539 62.7998 101.717 65.9856 107.897 67.9461V67.9189Z" fill="white"/>
</mask>
<g mask="url(#mask1_200_4363)">
<path d="M78.3055 89.1936C78.1693 88.4766 84.2855 89.4205 88.9678 84.0382C90.5831 82.1775 93.0967 78.8737 95.3199 78.8737C98.0966 78.8737 101.073 79.4274 103.496 79.9901C100.538 82.8583 95.0658 85.5812 92.1076 88.4494C81.0641 89.7564 78.3781 89.6384 78.3055 89.2027V89.1936Z" fill="#333333"/>
</g>
<path d="M122.253 72.4748C123.142 73.328 124.458 75.2613 124.712 76.2324C125.175 77.9933 124.394 80.5256 123.396 83.6025C121.246 90.2646 120.601 93.9224 115.982 94.6667C116.817 94.9118 119.494 95.3837 121.382 94.9118C121.745 94.821 122.108 94.7121 122.489 94.5578C124.358 93.7772 125.057 92.2433 126.89 86.6885C129.113 79.9629 128.741 78.0568 128.06 76.4957C126.681 73.3552 123.206 72.738 122.253 72.4839V72.4748Z" fill="#333333"/>
<path d="M-10.9318 128.993C-8.15508 129.084 10.5381 127.16 25.9827 114.008C30.8556 109.86 32.6796 103.498 34.0316 99.5947C34.3129 98.796 33.705 97.961 32.852 97.9882L28.6778 98.0971C28.1333 98.1153 27.6705 98.4874 27.5344 99.0138C26.6814 102.263 25.4836 106.928 21.0644 111.249C7.32579 124.709 -9.55252 128.186 -13.6904 128.748L-10.9409 128.993H-10.9318Z" fill="#E6E6E6"/>
<path d="M92.4434 148.671C94.2673 148.771 100.12 148.926 107.507 131.944C109.803 126.661 109.939 122.513 109.893 117.866C109.884 116.922 109.676 115.969 109.122 115.996L106.373 115.216C106.01 115.234 105.529 115.67 105.619 116.287C106.282 120.789 104.322 126.779 102.879 130.845C98.8771 142.109 93.6775 146.611 90.3926 148.553L92.4525 148.681L92.4434 148.671Z" fill="#E6E6E6"/>
<path d="M102.163 104.082C104.538 99.817 103.401 94.6526 99.6223 92.5474C95.844 90.4422 90.8553 92.1933 88.4798 96.4586C86.1044 100.724 87.2417 105.888 91.02 107.993C94.7984 110.099 99.7871 108.348 102.163 104.082Z" fill="#333333"/>
<path d="M104.152 104.859C106.527 100.594 105.39 95.4294 101.612 93.3241C97.8332 91.2189 92.8446 92.97 90.4691 97.2353C88.0936 101.501 89.2309 106.665 93.0093 108.77C96.7877 110.875 101.776 109.124 104.152 104.859Z" fill="#999999"/>
<path d="M102.681 104.042C104.313 101.112 103.531 97.5647 100.935 96.1181C98.3384 94.6716 94.9111 95.8738 93.2795 98.8035C91.6479 101.733 92.4299 105.281 95.0261 106.727C97.6224 108.174 101.05 106.972 102.681 104.042Z" fill="black"/>
<path d="M97.1531 103.97C96.3818 102.509 96.5815 100.739 97.6432 99.5587C98.5687 98.5331 100.002 98.0974 101.382 98.4151C104.122 101.401 108.786 107.047 116.572 108.744C135.429 112.847 147.906 101.946 152.325 109.706C153.614 111.966 152.616 116.532 141.382 126.262L136.608 124.809C141.264 120.843 147.171 116.141 146.173 114.371C145.102 112.475 136.736 115.86 129.903 116.35C122.089 116.913 111.146 117.203 97.1441 103.961L97.1531 103.97Z" fill="#E6E6E6"/>
<path d="M56.1548 80.7613C51.9171 79.3363 49.5305 75.0794 50.8191 71.2492C52.1077 67.4189 56.5813 65.4766 60.8191 66.9016" fill="url(#paint3_linear_200_4363)"/>
</g>
<defs>
<linearGradient id="paint0_linear_200_4363" x1="16.3822" y1="127.224" x2="144.225" y2="313.018" gradientUnits="userSpaceOnUse">
<stop stop-color="#A3B5FF"/>
<stop offset="0.09" stop-color="#99B2FF"/>
<stop offset="0.255" stop-color="#80ACFF"/>
<stop offset="0.4" stop-color="#57A2FF"/>
<stop offset="0.495" stop-color="#2997FF"/>
</linearGradient>
<linearGradient id="paint1_linear_200_4363" x1="109.861" y1="63.4288" x2="32.2281" y2="127.723" gradientUnits="userSpaceOnUse">
<stop stop-color="#FFD9C9"/>
<stop offset="1" stop-color="#FF97AB"/>
</linearGradient>
<linearGradient id="paint2_linear_200_4363" x1="64.9939" y1="61.9283" x2="47.6609" y2="80.0161" gradientUnits="userSpaceOnUse">
<stop stop-color="#FFD9C9"/>
<stop offset="0.12" stop-color="#FFD0C9"/>
<stop offset="0.34" stop-color="#FFC9C9"/>
<stop offset="0.95" stop-color="#FFC8CA"/>
</linearGradient>
<linearGradient id="paint3_linear_200_4363" x1="50.4835" y1="72.4926" x2="70.5462" y2="80.6522" gradientUnits="userSpaceOnUse">
<stop stop-color="#FF91A7"/>
<stop offset="0.54" stop-color="#FFC8C9"/>
</linearGradient>
</defs>
</svg>
