<svg width="101" height="78" viewBox="0 0 101 78" fill="none" xmlns="http://www.w3.org/2000/svg">
<g filter="url(#filter0_d_212_25561)">
<path fill-rule="evenodd" clip-rule="evenodd" d="M19.6749 70.1239C17.9609 70.2586 16.4644 68.9767 16.3323 67.2607L16.0602 63.7266L14.8463 65.7151C13.9509 67.1819 12.0404 67.6328 10.579 66.7222C9.11768 65.8116 8.65888 63.8843 9.55428 62.4175L11.1669 59.7759L9.28292 60.5171C7.68397 61.1462 5.88568 60.3537 5.26634 58.7469C4.64699 57.1401 5.44111 55.3275 7.04007 54.6984L8.12433 54.2718L6.78319 53.9247C5.11737 53.4935 4.10961 51.7927 4.53228 50.1258C4.95495 48.459 6.64799 47.4572 8.31381 47.8884L9.70717 48.249L8.86702 47.2741C7.74267 45.9693 7.8769 43.9918 9.16683 42.8571C10.4568 41.7225 12.4139 41.8604 13.5383 43.1652L14.5697 44.3621L14.4425 42.71C14.3104 40.994 15.5928 39.4938 17.3067 39.3591C19.0207 39.2244 20.5172 40.5063 20.6493 42.2223L20.7874 44.0162L21.6961 42.5276C22.5915 41.0608 24.502 40.61 25.9634 41.5206C27.4248 42.4312 27.8836 44.3584 26.9882 45.8252L26.1651 47.1736L27.771 46.5417C29.3699 45.9126 31.1682 46.7052 31.7876 48.312C32.4069 49.9188 31.6128 51.7313 30.0138 52.3604L28.259 53.0509L30.2917 53.577C31.9575 54.0082 32.9653 55.709 32.5426 57.3759C32.1199 59.0427 30.4269 60.0445 28.7611 59.6133L27.4107 59.2638L28.7173 60.7801C29.8416 62.0848 29.7074 64.0624 28.4175 65.197C27.1275 66.3316 25.1704 66.1937 24.046 64.8889L22.232 62.7838L22.5391 66.773C22.6712 68.489 21.3888 69.9892 19.6749 70.1239Z" fill="#909AF8"/>
<path d="M12.4904 53.1097C11.4027 54.1292 11.8394 58.858 15.7502 56.2984C16.2037 57.8694 17.7506 60.9216 19.8833 58.4161" stroke="#606FF5" stroke-width="0.45203" stroke-linecap="round" stroke-linejoin="round"/>
<path d="M21.192 50.9425C21.9247 52.1925 23.8943 53.8204 25.9115 50.3315" stroke="#606FF5" stroke-width="0.45203" stroke-linecap="round" stroke-linejoin="round"/>
<path fill-rule="evenodd" clip-rule="evenodd" d="M43.3953 67.9289C29.3536 66.4294 18.4126 54.4269 18.4126 39.8427C18.4126 24.2439 30.9287 11.5986 46.368 11.5986C60.9502 11.5986 72.9246 22.8787 74.2094 37.2734L74.2104 37.2723C75.0529 45.2771 83.1254 47.8899 86.8995 46.1368C74.4338 60.7279 60.5366 66.1577 51.3472 67.6401C50.0167 67.8817 48.6535 68.0283 47.2648 68.0725C45.7119 68.1422 44.4039 68.079 43.3952 67.929L43.3953 67.9289Z" fill="#FFCCCC"/>
<mask id="mask0_212_25561" style="mask-type:alpha" maskUnits="userSpaceOnUse" x="18" y="11" width="69" height="58">
<path fill-rule="evenodd" clip-rule="evenodd" d="M43.3953 67.9289C29.3536 66.4294 18.4126 54.4269 18.4126 39.8427C18.4126 24.2439 30.9287 11.5986 46.368 11.5986C60.9502 11.5986 72.9246 22.8787 74.2094 37.2734L74.2104 37.2723C75.0529 45.2771 83.1254 47.8899 86.8995 46.1368C74.4338 60.7279 60.5366 66.1577 51.3472 67.6401C50.0167 67.8817 48.6535 68.0283 47.2648 68.0725C45.7119 68.1422 44.4039 68.079 43.3952 67.929L43.3953 67.9289Z" fill="#FFF2F2"/>
</mask>
<g mask="url(#mask0_212_25561)">
<path d="M36.1313 66.581C68.597 67.2301 70.3648 23.3362 56.3154 12.8349C67.1468 16.1745 72.7218 25.8719 73.8127 33.1097C75.0692 41.4453 72.5466 59.4286 61.4575 65.2014C50.3684 70.9741 40.5492 68.1569 36.1313 66.581Z" fill="#FFAEAE"/>
</g>
<path d="M79.5352 48.8335C79.3559 44.3921 81.7418 35.9027 92.7199 37.4759C92.7323 42.0031 90.1126 50.6127 79.5352 48.8335Z" fill="#FFCCCC"/>
<path d="M79.3162 48.9217C82.8353 46.2537 91.1092 43.4248 96.0524 53.4524C92.3687 56.0301 83.8643 58.7327 79.3162 48.9217Z" fill="#FFCCCC"/>
<path d="M41.0752 29.1298L41.071 32.2289" stroke="#4D5358" stroke-width="3.18777" stroke-linecap="round"/>
<path d="M30.1904 29.1298L30.1862 32.2289" stroke="#4D5358" stroke-width="3.18777" stroke-linecap="round"/>
<path d="M32.0518 36.8719C33.2443 38.4784 36.4747 40.1863 38.9088 36.8719" stroke="#F89090" stroke-width="1.82158" stroke-linecap="round"/>
<path d="M58.8605 44.7358C55.0321 47.3391 49.6672 48.0281 46.1046 48.0407C45.1962 48.0439 44.5802 49.0273 45.0972 49.7743C51.351 58.8087 61.4155 55.3143 66.9512 51.5869C67.627 51.1318 67.5533 50.1364 66.8592 49.7097C65.1618 48.6661 62.4148 46.8337 60.8951 45.0574C60.4039 44.4833 59.4852 44.311 58.8605 44.7358Z" fill="#F89090"/>
<path fill-rule="evenodd" clip-rule="evenodd" d="M63.0516 73.4227C60.9477 73.8664 58.8895 72.519 58.4545 70.4132L57.7087 66.8028L56.7935 68.8485C55.9154 70.8112 53.618 71.6782 51.6621 70.785C49.7062 69.8919 48.8324 67.5767 49.7105 65.6139L51.0059 62.7185L49.3456 63.6338C47.4626 64.6719 45.1078 63.9797 44.086 62.0878C43.0643 60.1959 43.7624 57.8207 45.6454 56.7826L46.3925 56.3708L45.2862 56.233C43.1525 55.9672 41.6339 54.0215 41.8943 51.8872C42.1547 49.7528 44.0956 48.238 46.2293 48.5038L47.3806 48.6472L46.6548 47.9957C45.0545 46.5595 44.9082 44.0862 46.328 42.4714C47.7478 40.8566 50.196 40.7118 51.7962 42.148L52.8023 43.051L52.5105 41.638C52.0755 39.5323 53.4284 37.4656 55.5324 37.022C57.6363 36.5784 59.6945 37.9258 60.1295 40.0315L60.4536 41.6005L61.0827 40.1944C61.9608 38.2316 64.2582 37.3646 66.2141 38.2578C68.17 39.151 69.0437 41.4662 68.1656 43.4289L67.6083 44.6748L68.958 43.9307C70.841 42.8926 73.1958 43.5848 74.2176 45.4767C75.2393 47.3686 74.5412 49.7438 72.6582 50.7819L71.1584 51.6087L73.1085 51.8516C75.2422 52.1174 76.7608 54.0631 76.5004 56.1974C76.24 58.3318 74.2991 59.8466 72.1654 59.5809L71.068 59.4442L72.4267 60.6635C74.0269 62.0997 74.1732 64.573 72.7534 66.1878C71.3336 67.8026 68.8854 67.9474 67.2852 66.5112L65.2157 64.6539L66.0735 68.8067C66.5085 70.9124 65.1556 72.9791 63.0516 73.4227Z" fill="#909AF8"/>
<path d="M51.9417 54.2149C50.8079 55.5895 52.0388 61.1208 56.2826 57.4878C57.0567 59.2778 59.3488 62.6531 61.4956 59.3579" stroke="#606FF5" stroke-width="0.539597" stroke-linecap="round" stroke-linejoin="round"/>
<path d="M61.916 50.3075C62.9722 51.6746 65.5499 53.2984 67.4113 48.8569" stroke="#606FF5" stroke-width="0.539597" stroke-linecap="round" stroke-linejoin="round"/>
<path d="M44.0995 5.27605C46.0749 8.36679 42.7318 10.7528 39.7143 12.0105C39.4596 12.1167 39.5548 12.611 39.8307 12.6108C53.4854 12.5985 60.4105 18.5839 62.4787 22.0885C62.5812 22.2623 62.8431 22.2396 62.9036 22.0471C65.3959 14.1258 52.1472 7.49191 44.386 4.87027C44.1627 4.79485 43.9725 5.07746 44.0995 5.27605Z" fill="#F89090"/>
</g>
<defs>
<filter id="filter0_d_212_25561" x="0.236035" y="0.657788" width="100.016" height="77.0494" filterUnits="userSpaceOnUse" color-interpolation-filters="sRGB">
<feFlood flood-opacity="0" result="BackgroundImageFix"/>
<feColorMatrix in="SourceAlpha" type="matrix" values="0 0 0 0 0 0 0 0 0 0 0 0 0 0 0 0 0 0 127 0" result="hardAlpha"/>
<feOffset/>
<feGaussianBlur stdDeviation="2.1"/>
<feComposite in2="hardAlpha" operator="out"/>
<feColorMatrix type="matrix" values="0 0 0 0 0.726628 0 0 0 0 0.726628 0 0 0 0 0.726628 0 0 0 0.57 0"/>
<feBlend mode="normal" in2="BackgroundImageFix" result="effect1_dropShadow_212_25561"/>
<feBlend mode="normal" in="SourceGraphic" in2="effect1_dropShadow_212_25561" result="shape"/>
</filter>
</defs>
</svg>
