<svg width="197" height="203" viewBox="0 0 197 203" fill="none" xmlns="http://www.w3.org/2000/svg">
<path fill-rule="evenodd" clip-rule="evenodd" d="M98.2087 165.881L67.9189 136.424L31.3275 173.118L61.6173 202.574L69.738 194.431C64.0317 188.881 63.9613 179.814 69.5808 174.179C75.2003 168.544 84.3817 168.474 90.0881 174.024L98.2087 165.881Z" fill="#DABA17"/>
<path d="M61.6157 202.574V191.676L37.6301 169.152L32.1855 174.383L61.6157 202.574Z" fill="#DABA17"/>
<rect width="24.5946" height="127.878" rx="12.2755" transform="matrix(0.716899 0.697177 -0.70612 0.708093 90.9609 86.2612)" fill="#FCD717"/>
<mask id="mask0_200_22915" style="mask-type:alpha" maskUnits="userSpaceOnUse" x="5" y="91" width="99" height="98">
<rect width="24.5946" height="127.878" rx="12.2755" transform="matrix(0.716899 0.697177 -0.70612 0.708093 90.9609 86.2613)" fill="#FEEB8B"/>
</mask>
<g mask="url(#mask0_200_22915)">
<path d="M20.9247 182.337C5.14908 182.77 7.16964 170.016 10.1519 163.585C-1.38782 175.558 4.49165 186.004 8.87385 189.73L24.5765 191.894L109.663 109.311L103.637 101.918L20.9247 182.337Z" fill="#DABA17"/>
</g>
<path fill-rule="evenodd" clip-rule="evenodd" d="M98.1472 158.934L67.8574 129.478L31.2659 166.171L61.5557 195.628L69.6769 187.484C63.9711 181.935 63.9009 172.868 69.5202 167.233C75.1396 161.598 84.3206 161.528 90.0271 167.077L98.1472 158.934Z" fill="#FCD717"/>
<path fill-rule="evenodd" clip-rule="evenodd" d="M95.6393 107.023C114.428 125.295 144.658 125.066 163.161 106.512C181.663 87.9575 181.432 58.1041 162.643 39.8324C143.854 21.5606 113.624 21.7896 95.1213 40.3439C76.6187 58.8981 76.8506 88.7515 95.6393 107.023ZM157.629 81.36L150.141 53.7619L122.194 46.367L101.736 66.5702L109.224 94.1683L137.171 101.563L157.629 81.36Z" fill="#DABA17"/>
<path fill-rule="evenodd" clip-rule="evenodd" d="M90.6314 100.851C109.42 119.123 139.651 118.894 158.153 100.34C176.656 81.7853 176.424 51.9319 157.635 33.6601C138.847 15.3884 108.616 15.6174 90.1135 34.1716C71.6109 52.7259 71.8428 82.5793 90.6314 100.851ZM152.621 75.1877L145.133 47.5896L117.186 40.1948L96.7279 60.3979L104.216 87.996L132.163 95.3909L152.621 75.1877Z" fill="#FCD717"/>
<path d="M61.5762 202.538V195.597L69.6701 187.479L69.8791 194.348L61.5762 202.538Z" fill="#DABA17"/>
<path d="M89.9043 173.921V166.979L97.9982 158.862L98.2072 165.731L89.9043 173.921Z" fill="#DABA17"/>
<path d="M34.6611 170.376L72.4325 133.662" stroke="#DABA17" stroke-width="1.67619"/>
<mask id="mask1_200_22915" style="mask-type:alpha" maskUnits="userSpaceOnUse" x="76" y="20" width="96" height="95">
<path fill-rule="evenodd" clip-rule="evenodd" d="M90.6275 100.851C109.416 119.123 139.647 118.894 158.149 100.34C176.652 81.7854 176.42 51.932 157.631 33.6603C138.843 15.3885 108.612 15.6175 90.1096 34.1718C71.607 52.726 71.8389 82.5794 90.6275 100.851ZM152.617 75.1876L145.128 47.5896L117.182 40.1947L96.7234 60.3979L104.212 87.9959L132.158 95.3908L152.617 75.1876Z" fill="#FCD717"/>
</mask>
<g mask="url(#mask1_200_22915)">
<rect width="129.867" height="13.5746" transform="matrix(0.94683 -0.321735 0.329039 0.944316 56.6055 73.428)" fill="#FEEB8B"/>
<rect width="129.867" height="47.5929" transform="matrix(0.94683 -0.321735 0.329039 0.944316 78.3965 104.091)" fill="#FEEB8B"/>
</g>
<mask id="mask2_200_22915" style="mask-type:alpha" maskUnits="userSpaceOnUse" x="31" y="129" width="68" height="67">
<path fill-rule="evenodd" clip-rule="evenodd" d="M98.1477 158.934L67.8579 129.478L31.2664 166.171L61.5562 195.628L69.6774 187.484C63.9716 181.935 63.9014 172.868 69.5207 167.233C75.1401 161.598 84.3211 161.528 90.0276 167.077L98.1477 158.934Z" fill="#FCD717"/>
</mask>
<g mask="url(#mask2_200_22915)">
<rect width="129.867" height="47.5929" transform="matrix(0.94683 -0.321735 0.329039 0.944316 1.16943 185.899)" fill="#FEEB8B"/>
</g>
<ellipse cx="30.2655" cy="55.3141" rx="14.0673" ry="13.8918" fill="#CFD4FC"/>
<ellipse cx="47.5088" cy="20.6383" rx="9.09671" ry="8.98324" fill="#CFD4FC"/>
<ellipse cx="165.308" cy="158.862" rx="9.09671" ry="8.98324" fill="#CFD4FC"/>
</svg>
