<svg width="222" height="63" viewBox="0 0 222 63" fill="none" xmlns="http://www.w3.org/2000/svg">
<path fill-rule="evenodd" clip-rule="evenodd" d="M53.7313 16.049L27.0976 0.584229L0.463867 16.049V46.9784L27.0976 62.4432L53.7313 46.9784V16.049ZM29.3084 26.5654C23.6257 31.7474 16.822 33.5116 14.1119 30.5057C13.0833 29.3647 12.7923 27.7006 13.1379 25.7915C12.6909 27.2029 12.4497 28.7065 12.4497 30.2668C12.4497 38.4028 19.0078 44.9984 27.0977 44.9984C35.1875 44.9984 41.7456 38.4028 41.7456 30.2668C41.7456 25.1675 39.1694 20.6733 35.2545 18.0288C34.327 20.7921 32.2588 23.8749 29.3084 26.5654Z" fill="url(#paint0_linear_200_1654)"/>
<g clip-path="url(#clip0_200_1654)">
<path d="M95.5786 9.13398C109.971 9.13398 120.369 19.532 120.369 33.2353C120.369 46.9387 109.971 57.3367 95.5786 57.3367H75.6089V9.13398H95.5786ZM94.2014 51.1392C105.977 51.1392 113.138 43.2891 113.138 33.2353C113.138 23.1816 105.977 15.3315 94.2014 15.3315H82.495V51.1392H94.2014Z" fill="#606FF5"/>
<path d="M131.439 15.3315C128.547 15.3315 126.206 12.9902 126.206 10.098C126.206 7.3436 128.547 5.00232 131.439 5.00232C134.194 5.00232 136.535 7.3436 136.535 10.098C136.535 12.9902 134.194 15.3315 131.439 15.3315ZM134.813 19.4631V57.3367H127.927V19.4631H134.813Z" fill="#606FF5"/>
<path d="M174.287 19.4631H181.517L166.919 57.3367H155.488L140.476 19.4631H147.913L160.239 51.1392H162.305L174.287 19.4631Z" fill="#606FF5"/>
<path d="M202.177 18.7745C215.536 18.7745 221.665 27.7953 221.665 38.3999C221.665 48.9357 215.536 58.0253 202.866 58.0253C190.54 58.0253 181.725 49.0045 181.725 38.3999C181.725 27.7953 190.195 18.7745 202.177 18.7745ZM202.039 24.5589C195.498 24.5589 191.09 28.0708 189.438 33.2353H214.228C212.919 28.0708 209.339 24.5589 202.039 24.5589ZM204.449 51.8278C214.779 51.8278 220.632 46.5944 220.976 38.3999H188.611C188.611 45.9746 194.465 51.8278 204.449 51.8278Z" fill="#606FF5"/>
</g>
<defs>
<linearGradient id="paint0_linear_200_1654" x1="16.7875" y1="9.97638" x2="45.1193" y2="57.0509" gradientUnits="userSpaceOnUse">
<stop stop-color="#606FF5"/>
<stop offset="1" stop-color="#909AF8"/>
</linearGradient>
<clipPath id="clip0_200_1654">
<rect width="146.056" height="53.2674" fill="white" transform="translate(75.21 4.849)"/>
</clipPath>
</defs>
</svg>
