<svg width="54" height="63" viewBox="0 0 54 63" fill="none" xmlns="http://www.w3.org/2000/svg">
<path fill-rule="evenodd" clip-rule="evenodd" d="M53.7313 16.049L27.0976 0.584229L0.463867 16.049V46.9784L27.0976 62.4432L53.7313 46.9784V16.049ZM29.3084 26.5654C23.6257 31.7474 16.822 33.5116 14.1119 30.5057C13.0833 29.3647 12.7923 27.7006 13.1379 25.7915C12.6909 27.2029 12.4497 28.7065 12.4497 30.2668C12.4497 38.4028 19.0078 44.9984 27.0977 44.9984C35.1875 44.9984 41.7456 38.4028 41.7456 30.2668C41.7456 25.1675 39.1694 20.6733 35.2545 18.0288C34.327 20.7921 32.2588 23.8749 29.3084 26.5654Z" fill="url(#paint0_linear_200_1655)"/>
<defs>
<linearGradient id="paint0_linear_200_1655" x1="16.7875" y1="9.97638" x2="45.1193" y2="57.0509" gradientUnits="userSpaceOnUse">
<stop stop-color="#606FF5"/>
<stop offset="1" stop-color="#909AF8"/>
</linearGradient>
</defs>
</svg>
