<svg width="27" height="26" viewBox="0 0 27 26" fill="none" xmlns="http://www.w3.org/2000/svg">
<g clip-path="url(#clip0_200_1847)">
<path d="M20.1729 2.1593H7.67292L1.41992 13L7.67292 23.8407H20.1729L26.4199 13L20.1729 2.1593Z" fill="#BDC4F9"/>
<mask id="mask0_200_1847" style="mask-type:luminance" maskUnits="userSpaceOnUse" x="1" y="2" width="26" height="22">
<path d="M20.1729 2.1593H7.67292L1.41992 13L7.67292 23.8407H20.1729L26.4199 13L20.1729 2.1593Z" fill="white"/>
</mask>
<g mask="url(#mask0_200_1847)">
<path d="M25.0047 -1.78576L0.224609 23.0349L4.21839 27.0352L28.9985 2.21456L25.0047 -1.78576Z" fill="#CBD1F4"/>
<path d="M29.0184 5.25781L4.23828 30.0785L9.21039 35.0587L33.9905 10.2381L29.0184 5.25781Z" fill="#CBD1F4"/>
</g>
<path d="M18.8304 4.48865H9.01561L4.10498 13L9.01561 21.5113H18.8304L23.7345 13L18.8304 4.48865Z" fill="#7A88ED"/>
<path d="M17.0345 7.5946H10.8054L7.69092 12.9999L10.8054 18.3993H17.0345L20.149 12.9999L17.0345 7.5946Z" fill="#BDC4F9"/>
<mask id="mask1_200_1847" style="mask-type:luminance" maskUnits="userSpaceOnUse" x="7" y="7" width="14" height="12">
<path d="M17.0345 7.5946H10.8054L7.69092 12.9999L10.8054 18.3993H17.0345L20.149 12.9999L17.0345 7.5946Z" fill="white"/>
</mask>
<g mask="url(#mask1_200_1847)">
<path d="M23.0145 -1.22046L-1.76562 23.6002L2.22816 27.6005L27.0082 2.77986L23.0145 -1.22046Z" fill="#CBD1F4"/>
<path d="M27.0325 5.81897L2.25244 30.6396L7.22455 35.6199L32.0046 10.7992L27.0325 5.81897Z" fill="#CBD1F4"/>
</g>
<path fill-rule="evenodd" clip-rule="evenodd" d="M10.4495 12.6338C11.1559 13.4169 12.9252 12.9571 14.402 11.6065C15.1725 10.9025 15.7076 10.1051 15.9502 9.37952C16.9704 10.0692 17.641 11.2401 17.641 12.5692C17.641 14.6884 15.9359 16.4053 13.8313 16.4053C11.7266 16.4053 10.0215 14.6884 10.0215 12.5692C10.0215 12.1597 10.0857 11.7717 10.1998 11.4054C10.1071 11.9011 10.1856 12.3393 10.4567 12.6338H10.4495Z" fill="#7A88ED"/>
</g>
<defs>
<clipPath id="clip0_200_1847">
<rect width="26" height="26" fill="white" transform="translate(0.919922)"/>
</clipPath>
</defs>
</svg>
