<svg width="27" height="26" viewBox="0 0 27 26" fill="none" xmlns="http://www.w3.org/2000/svg">
<path d="M13.2964 24.5189C19.6477 24.5189 24.7964 19.3617 24.7964 13C24.7964 6.63836 19.6477 1.4812 13.2964 1.4812C6.94511 1.4812 1.79639 6.63836 1.79639 13C1.79639 19.3617 6.94511 24.5189 13.2964 24.5189Z" fill="#F6D752"/>
<mask id="mask0_200_1846" style="mask-type:luminance" maskUnits="userSpaceOnUse" x="1" y="1" width="24" height="24">
<path d="M13.2964 24.5189C19.6477 24.5189 24.7964 19.3617 24.7964 13C24.7964 6.63836 19.6477 1.4812 13.2964 1.4812C6.94511 1.4812 1.79639 6.63836 1.79639 13C1.79639 19.3617 6.94511 24.5189 13.2964 24.5189Z" fill="white"/>
</mask>
<g mask="url(#mask0_200_1846)">
<path d="M23.3326 -0.911425L-0.588379 23.0487L3.26694 26.9103L27.1879 2.95021L23.3326 -0.911425Z" fill="#FFEA92"/>
<path d="M27.2022 5.88789L3.28125 29.848L8.08097 34.6556L32.0019 10.6955L27.2022 5.88789Z" fill="#FFEA92"/>
</g>
<path d="M13.2964 22.0402C18.281 22.0402 22.3218 17.9928 22.3218 13C22.3218 8.00726 18.281 3.95984 13.2964 3.95984C8.3118 3.95984 4.271 8.00726 4.271 13C4.271 17.9928 8.3118 22.0402 13.2964 22.0402Z" fill="#DCA336"/>
<path d="M13.2966 18.855C16.5249 18.855 19.142 16.2336 19.142 13C19.142 9.76638 16.5249 7.14502 13.2966 7.14502C10.0682 7.14502 7.45117 9.76638 7.45117 13C7.45117 16.2336 10.0682 18.855 13.2966 18.855Z" fill="#F6D752"/>
<mask id="mask1_200_1846" style="mask-type:luminance" maskUnits="userSpaceOnUse" x="7" y="7" width="13" height="12">
<path d="M13.2966 18.855C16.5249 18.855 19.142 16.2336 19.142 13C19.142 9.76638 16.5249 7.14502 13.2966 7.14502C10.0682 7.14502 7.45117 9.76638 7.45117 13C7.45117 16.2336 10.0682 18.855 13.2966 18.855Z" fill="white"/>
</mask>
<g mask="url(#mask1_200_1846)">
<path d="M23.0625 -2.40923L-0.858398 21.5509L2.99692 25.4125L26.9179 1.45241L23.0625 -2.40923Z" fill="#FFEA92"/>
<path d="M26.9375 4.39009L3.0166 28.3502L7.81632 33.1578L31.7373 9.19767L26.9375 4.39009Z" fill="#FFEA92"/>
</g>
<path fill-rule="evenodd" clip-rule="evenodd" d="M9.9474 12.6951C10.6292 13.4509 12.3372 13.0071 13.7628 11.7034C14.5066 11.0238 15.0232 10.254 15.2573 9.55359C16.2422 10.2193 16.8896 11.3497 16.8896 12.6326C16.8896 14.6784 15.2436 16.3358 13.2119 16.3358C11.1802 16.3358 9.53418 14.6784 9.53418 12.6326C9.53418 12.2374 9.59616 11.8629 9.70636 11.5092C9.61682 11.9877 9.69258 12.4107 9.95429 12.6951H9.9474Z" fill="#DCA336"/>
</svg>
