<svg width="27" height="26" viewBox="0 0 27 26" fill="none" xmlns="http://www.w3.org/2000/svg">
<path d="M17.9126 1.98193H8.80223L2.35742 8.43731V17.5626L8.80223 24.018H17.9126L24.3574 17.5626V8.43731L17.9126 1.98193Z" fill="#FFD4D6"/>
<mask id="mask0_200_1848" style="mask-type:luminance" maskUnits="userSpaceOnUse" x="2" y="1" width="23" height="24">
<path d="M17.9126 1.98193H8.80223L2.35742 8.43731V17.5626L8.80223 24.018H17.9126L24.3574 17.5626V8.43731L17.9126 1.98193Z" fill="white"/>
</mask>
<g mask="url(#mask0_200_1848)">
<path d="M24.3362 -2.12428L-0.842285 23.0955L3.21571 27.1601L28.3942 1.94036L24.3362 -2.12428Z" fill="#FFE1E3"/>
<path d="M28.4109 5.0283L3.23242 30.248L8.28447 35.3084L33.463 10.0886L28.4109 5.0283Z" fill="#FFE1E3"/>
</g>
<path d="M16.6651 5.00537H10.0498L5.37598 9.68689V16.3129L10.0498 20.9945H16.6651L21.3389 16.3129V9.68689L16.6651 5.00537Z" fill="#FFA2B5"/>
<path d="M15.6244 7.51685H11.0905L7.8833 10.7293V15.2706L11.0905 18.4831H15.6244L18.8316 15.2706V10.7293L15.6244 7.51685Z" fill="#FFD4D6"/>
<mask id="mask1_200_1848" style="mask-type:luminance" maskUnits="userSpaceOnUse" x="7" y="7" width="12" height="12">
<path d="M15.6244 7.51685H11.0905L7.8833 10.7293V15.2706L11.0905 18.4831H15.6244L18.8316 15.2706V10.7293L15.6244 7.51685Z" fill="white"/>
</mask>
<g mask="url(#mask1_200_1848)">
<path d="M23.1892 -2.52248L-1.98926 22.6973L2.06873 26.7619L27.2472 1.54216L23.1892 -2.52248Z" fill="#FFE1E3"/>
<path d="M27.2605 4.63439L2.08203 29.8541L7.13408 34.9145L32.3126 9.69471L27.2605 4.63439Z" fill="#FFE1E3"/>
</g>
<path fill-rule="evenodd" clip-rule="evenodd" d="M9.91151 12.7141C10.6292 13.5097 12.427 13.0426 13.9275 11.6703C14.7104 10.9549 15.2541 10.1447 15.5006 9.40747C16.5372 10.1082 17.2186 11.298 17.2186 12.6484C17.2186 14.8017 15.4861 16.5463 13.3476 16.5463C11.2091 16.5463 9.47656 14.8017 9.47656 12.6484C9.47656 12.2323 9.5418 11.8382 9.65779 11.4659C9.56355 11.9696 9.64329 12.4148 9.91876 12.7141H9.91151Z" fill="#FFA2B5"/>
</svg>
