<svg width="27" height="26" viewBox="0 0 27 26" fill="none" xmlns="http://www.w3.org/2000/svg">
<path d="M13.6479 24.5189C19.9992 24.5189 25.1479 19.3617 25.1479 13C25.1479 6.63836 19.9992 1.4812 13.6479 1.4812C7.29667 1.4812 2.14795 6.63836 2.14795 13C2.14795 19.3617 7.29667 24.5189 13.6479 24.5189Z" fill="#CCCCCC"/>
<mask id="mask0_200_1845" style="mask-type:luminance" maskUnits="userSpaceOnUse" x="2" y="1" width="24" height="24">
<path d="M13.6479 24.5189C19.9992 24.5189 25.1479 19.3617 25.1479 13C25.1479 6.63836 19.9992 1.4812 13.6479 1.4812C7.29667 1.4812 2.14795 6.63836 2.14795 13C2.14795 19.3617 7.29667 24.5189 13.6479 24.5189Z" fill="white"/>
</mask>
<g mask="url(#mask0_200_1845)">
<path d="M23.6836 -0.911181L-0.237305 23.049L3.61801 26.9106L27.5389 2.95045L23.6836 -0.911181Z" fill="#E6E6E6"/>
<path d="M27.5586 5.88826L3.6377 29.8484L8.43742 34.656L32.3584 10.6958L27.5586 5.88826Z" fill="#E6E6E6"/>
</g>
<path d="M13.648 22.0402C18.6325 22.0402 22.6733 17.9928 22.6733 13C22.6733 8.00726 18.6325 3.95984 13.648 3.95984C8.66336 3.95984 4.62256 8.00726 4.62256 13C4.62256 17.9928 8.66336 22.0402 13.648 22.0402Z" fill="#808080"/>
<path d="M13.6476 18.855C16.876 18.855 19.493 16.2336 19.493 13C19.493 9.76638 16.876 7.14502 13.6476 7.14502C10.4193 7.14502 7.80225 9.76638 7.80225 13C7.80225 16.2336 10.4193 18.855 13.6476 18.855Z" fill="#CCCCCC"/>
<mask id="mask1_200_1845" style="mask-type:luminance" maskUnits="userSpaceOnUse" x="7" y="7" width="13" height="12">
<path d="M13.6472 18.855C16.8755 18.855 19.4926 16.2336 19.4926 13C19.4926 9.76638 16.8755 7.14502 13.6472 7.14502C10.4188 7.14502 7.80176 9.76638 7.80176 13C7.80176 16.2336 10.4188 18.855 13.6472 18.855Z" fill="white"/>
</mask>
<g mask="url(#mask1_200_1845)">
<path d="M23.4136 -2.40886L-0.507324 21.5513L3.34799 25.4129L27.2689 1.45277L23.4136 -2.40886Z" fill="#E6E6E6"/>
<path d="M27.2881 4.39046L3.36719 28.3506L8.16691 33.1582L32.0878 9.19804L27.2881 4.39046Z" fill="#E6E6E6"/>
</g>
<path fill-rule="evenodd" clip-rule="evenodd" d="M10.3278 12.6951C11.0096 13.4509 12.7176 13.0071 14.1432 11.7034C14.887 11.0238 15.4035 10.254 15.6377 9.55359C16.6225 10.2193 17.2699 11.3497 17.2699 12.6326C17.2699 14.6784 15.6239 16.3358 13.5922 16.3358C11.5606 16.3358 9.91455 14.6784 9.91455 12.6326C9.91455 12.2374 9.97653 11.8629 10.0867 11.5092C9.9972 11.9877 10.073 12.4107 10.3347 12.6951H10.3278Z" fill="#808080"/>
</svg>
