<svg width="26" height="26" viewBox="0 0 26 26" fill="none" xmlns="http://www.w3.org/2000/svg">
<path d="M13 24.5188C19.3513 24.5188 24.5 19.3616 24.5 12.9999C24.5 6.63824 19.3513 1.48108 13 1.48108C6.64873 1.48108 1.5 6.63824 1.5 12.9999C1.5 19.3616 6.64873 24.5188 13 24.5188Z" fill="#E8A021"/>
<mask id="mask0_200_1844" style="mask-type:luminance" maskUnits="userSpaceOnUse" x="1" y="1" width="24" height="24">
<path d="M13 24.5188C19.3513 24.5188 24.5 19.3616 24.5 12.9999C24.5 6.63824 19.3513 1.48108 13 1.48108C6.64873 1.48108 1.5 6.63824 1.5 12.9999C1.5 19.3616 6.64873 24.5188 13 24.5188Z" fill="white"/>
</mask>
<g mask="url(#mask0_200_1844)">
<path d="M23.0323 -0.907397L-0.888672 23.0527L2.96664 26.9144L26.8876 2.95423L23.0323 -0.907397Z" fill="#EAB259"/>
<path d="M26.9068 5.88618L2.98584 29.8463L7.78556 34.6539L31.7065 10.6938L26.9068 5.88618Z" fill="#EAB259"/>
</g>
<path d="M13 22.0401C17.9846 22.0401 22.0254 17.9926 22.0254 12.9999C22.0254 8.00714 17.9846 3.95972 13 3.95972C8.01541 3.95972 3.97461 8.00714 3.97461 12.9999C3.97461 17.9926 8.01541 22.0401 13 22.0401Z" fill="#AD7121"/>
<path d="M13.0002 18.8549C16.2285 18.8549 18.8456 16.2335 18.8456 12.9999C18.8456 9.76626 16.2285 7.1449 13.0002 7.1449C9.77186 7.1449 7.15479 9.76626 7.15479 12.9999C7.15479 16.2335 9.77186 18.8549 13.0002 18.8549Z" fill="#E8A021"/>
<mask id="mask1_200_1844" style="mask-type:luminance" maskUnits="userSpaceOnUse" x="7" y="7" width="12" height="12">
<path d="M13.0007 18.8549C16.229 18.8549 18.8461 16.2335 18.8461 12.9999C18.8461 9.76626 16.229 7.1449 13.0007 7.1449C9.77235 7.1449 7.15527 9.76626 7.15527 12.9999C7.15527 16.2335 9.77235 18.8549 13.0007 18.8549Z" fill="white"/>
</mask>
<g mask="url(#mask1_200_1844)">
<path d="M22.7691 -2.41094L-1.15186 21.5492L2.70346 25.4108L26.6244 1.45069L22.7691 -2.41094Z" fill="#EAB259"/>
<path d="M26.6372 4.38826L2.71631 28.3484L7.51603 33.156L31.437 9.19584L26.6372 4.38826Z" fill="#EAB259"/>
</g>
<path fill-rule="evenodd" clip-rule="evenodd" d="M9.7096 12.6948C10.3914 13.4507 12.0994 13.0069 13.525 11.7031C14.2688 11.0235 14.7854 10.2538 15.0195 9.55334C16.0044 10.2191 16.6518 11.3495 16.6518 12.6324C16.6518 14.6782 15.0058 16.3356 12.9741 16.3356C10.9424 16.3356 9.29639 14.6782 9.29639 12.6324C9.29639 12.2371 9.35837 11.8626 9.46856 11.509C9.37903 11.9875 9.45479 12.4105 9.7165 12.6948H9.7096Z" fill="#AD7121"/>
</svg>
